<?xml version="1.0" encoding="UTF-8"?>
<svg id="Livello_2" data-name="Livello 2" xmlns="http://www.w3.org/2000/svg" viewBox="0 0 27.57 33">
  <defs>
    <style>
      .cls-1 {
        fill: #1d1d1b;
        stroke-width: 0px;
      }
    </style>
  </defs>
  <g id="icone">
    <g id="elmo">
      <path class="cls-1" d="M2.46,24.07c-.3.27-.28.75.06.97,1.8,1.22,6.81,4.56,8.93,5.43s8.28,2.09,10.6,2.52c.43.08.81-.3.72-.74l-1.04-4.92c-.06-.29-.32-.5-.62-.49-1.65.04-6.87.11-8.69-.53-1.65-.58-5.29-3.56-6.5-4.58-.23-.2-.57-.19-.8.01l-2.64,2.32Z"/>
      <path class="cls-1" d="M21.29,13.51h6.05c.24,0,.31.32.1.43l-4.17,2.06c-.47.23-.97.42-1.48.57l-5.89,1.66c-.38.11-.64-.38-.34-.63l4.12-3.5c.45-.38,1.01-.59,1.6-.59Z"/>
      <path class="cls-1" d="M26.05,17.03l-4.68,7.86c-.48.81-1.39,1.28-2.33,1.2l-3.2-.27c-1.51-.13-2.96-.62-4.24-1.44l-1.06-.68c-.38-.25-.44-.79-.12-1.11l1.73-1.71c.49-.49,1.54-1.29,2.2-1.49l4.56-1.11,6.67-1.87c.36-.1.66.29.47.61Z"/>
      <path class="cls-1" d="M8.59,22.64c.27.25.69.23.93-.05,1.12-1.32,4.14-4.82,5.47-5.98s5.01-3.47,6.42-4.36c.32-.2.43-.61.25-.94-1.24-2.28-6.46-10.36-14.32-5.13-8.87,5.9-.88,14.45,1.25,16.46Z"/>
      <path class="cls-1" d="M2.7,15.3c.01.32-.41.46-.58.19C1.3,14.25-.05,12.86,0,9.1.07,4.2,3.22,2.03,5.45,1.08c8.96-3.8,13.16,3.63,13.16,3.63.35.46.04.97-.51.8,0,0-2.18-2.17-5.16-2.25-5.46-.15-8.46,2.15-10.14,5.81-1.17,2.55-.1,6.24-.1,6.24Z"/>
    </g>
  </g>
</svg>