<?xml version="1.0" encoding="UTF-8"?>
<svg id="Livello_2" data-name="Livello 2" xmlns="http://www.w3.org/2000/svg" viewBox="0 0 41.78 33">
  <defs>
    <style>
      .cls-1 {
        fill: #1d1d1b;
        stroke-width: 0px;
      }
    </style>
  </defs>
  <g id="icone">
    <g id="siege">
      <circle class="cls-1" cx="8.26" cy="28.08" r="4.92"/>
      <circle class="cls-1" cx="36.86" cy="28.08" r="4.92"/>
      <path class="cls-1" d="M7.76,21.52v5.33h29.1v-5.33c0-.43-.34-.77-.77-.77H8.53c-.43,0-.77.34-.77.77Z"/>
      <path class="cls-1" d="M11.75,20.75L31.94,4.56v-.93c0-.22.18-.4.4-.4h1.94c.22,0,.4.18.4.4v18.25h-2.74V6.94l-17.02,13.81h-3.16Z"/>
      <path class="cls-1" d="M0,0l32.48,18.96v2.34l-1.45-.51L8.26,7.96l-.92,1.51c-.22.36-.68.47-1.04.26L.38,6.29c-.24-.14-.38-.39-.38-.67V0Z"/>
    </g>
  </g>
</svg>