<?xml version="1.0" encoding="UTF-8"?>
<svg id="Livello_2" data-name="Livello 2" xmlns="http://www.w3.org/2000/svg" viewBox="0 0 24.87 33">
  <defs>
    <style>
      .cls-1 {
        fill: #1d1d1b;
        stroke-width: 0px;
      }
    </style>
  </defs>
  <g id="icone">
    <g id="bobina">
      <rect class="cls-1" x="3.68" y="7.5" width="17.53" height="2.67" rx=".48" ry=".48"/>
      <rect class="cls-1" x="11.22" width="2.64" height="8.29" rx=".47" ry=".47"/>
      <rect class="cls-1" x="3.77" y="30.33" width="17.53" height="2.67" rx=".48" ry=".48"/>
      <polygon class="cls-1" points="5.87 12.21 0 14.09 5.87 16.59 5.87 12.21"/>
      <polygon class="cls-1" points="5.87 19.74 0 21.63 5.87 24.12 5.87 19.74"/>
      <polygon class="cls-1" points="19 15.84 24.87 17.72 19 20.21 19 15.84"/>
      <polygon class="cls-1" points="19 23.27 24.87 25.15 19 27.64 19 23.27"/>
      <path class="cls-1" d="M5.1,11.24v18.02c0,.26.21.46.46.46h13.75c.26,0,.46-.21.46-.46V11.24c0-.26-.21-.46-.46-.46H5.57c-.26,0-.46.21-.46.46ZM9.56,24.98c-.92,0-1.67-.86-1.67-1.91s.75-1.91,1.67-1.91,1.66.86,1.66,1.91-.75,1.91-1.66,1.91ZM9.56,17.26c-.92,0-1.67-.86-1.67-1.91s.75-1.91,1.67-1.91,1.66.86,1.66,1.91-.75,1.91-1.66,1.91ZM15.58,26.57c-.92,0-1.66-.86-1.66-1.91s.75-1.91,1.66-1.91,1.67.86,1.67,1.91-.75,1.91-1.67,1.91ZM15.58,18.92c-.92,0-1.66-.86-1.66-1.91s.75-1.91,1.66-1.91,1.67.86,1.67,1.91-.75,1.91-1.67,1.91Z"/>
    </g>
  </g>
</svg>