<?xml version="1.0" encoding="UTF-8"?>
<svg id="Livello_2" data-name="Livello 2" xmlns="http://www.w3.org/2000/svg" viewBox="0 0 47.74 33">
  <defs>
    <style>
      .cls-1 {
        fill: #1d1d1b;
        stroke-width: 0px;
      }
    </style>
  </defs>
  <g id="icone">
    <g>
      <g>
        <path class="cls-1" d="M32.57,0H15.17c-1.15,0-2.08,1.07-2.08,2.4v28.21c0,1.32.93,2.4,2.08,2.4h17.41c1.15,0,2.08-1.07,2.08-2.4V2.4c0-1.32-.93-2.4-2.08-2.4ZM32.5,27.78c0,1.06-.75,1.92-1.67,1.92h-13.93c-.92,0-1.67-.86-1.67-1.92V5.22c0-1.06.75-1.92,1.67-1.92h13.93c.92,0,1.67.86,1.67,1.92v22.56Z"/>
        <path class="cls-1" d="M30.23,4.35h-12.72c-.69,0-1.26.56-1.26,1.26v21.78c0,.69.56,1.26,1.26,1.26h12.72c.69,0,1.26-.56,1.26-1.26V5.61c0-.69-.56-1.26-1.26-1.26ZM28.55,14.55v5.15h-8.68v-5.15c-.37,0-.69-.28-.72-.65-.03-.37.22-.71.59-.77.37-.07.73.16.82.52.1.36-.1.74-.45.86.36,1.3,1.09,2.19,1.93,2.19s1.57-.89,1.93-2.19c-.33-.12-.53-.46-.47-.8.06-.35.36-.6.71-.6s.65.25.71.6c.06.35-.14.69-.47.8h0c.35,1.3,1.09,2.19,1.93,2.19s1.57-.89,1.93-2.19c-.33-.12-.53-.46-.47-.8.06-.35.36-.6.71-.6h0c.39.01.7.33.7.72s-.31.71-.7.72Z"/>
      </g>
      <polygon class="cls-1" points="11.48 14.64 11.48 17.89 0 16.26 11.48 14.64"/>
      <polygon class="cls-1" points="36.26 14.64 36.26 17.89 47.74 16.26 36.26 14.64"/>
    </g>
  </g>
</svg>