<?xml version="1.0" encoding="UTF-8"?>
<svg id="Livello_2" data-name="Livello 2" xmlns="http://www.w3.org/2000/svg" viewBox="0 0 33 33">
  <defs>
    <style>
      .cls-1 {
        fill: #1d1d1b;
        stroke-width: 0px;
      }
    </style>
  </defs>
  <g id="icone">
    <g id="sun">
      <path class="cls-1" d="M13.42,10.78l1.19-.45c.33-.13.54-.44.54-.79v-2.29c0-.19.06-.37.17-.52l1.86-2.46c.1-.13.15-.28.17-.43l.37-3.84.87,3.78c.05.22.01.45-.1.64l-1.28,2.07c-.11.17-.15.38-.12.59l.38,2.3c.05.33.3.6.62.68l1.86.49c.25.07.52.01.73-.15l2-1.57c.13-.1.28-.16.45-.18l2.8-.24c.16-.01.31-.07.44-.17l2.5-1.93-2.35,3c-.12.15-.29.26-.48.3l-2.11.47c-.3.07-.54.29-.63.59l-.58,2.03c-.05.16-.04.34,0,.5l.45,1.4c.11.35.44.59.8.59h2.25c.18,0,.35.06.5.16l2.67,1.96c.11.08.23.13.36.15l3.25.52-3.79.45c-.19.02-.38-.02-.54-.12l-1.71-1.07c-.14-.09-.31-.13-.48-.13l-1.5.06c-.12,0-.24.04-.35.09l-1.08.56c-.28.15-.46.44-.46.76v1.83c0,.16.05.32.13.46l1.16,1.82c.09.14.13.3.13.46v2.84c0,.22.09.44.24.59l1.82,1.87-3.01-2.36c-.13-.1-.23-.24-.28-.39l-.66-1.94c-.08-.24-.27-.43-.51-.52l-1.54-.57c-.17-.06-.35-.07-.53-.02l-1.56.46c-.35.11-.6.43-.6.81l-.03,2.66c0,.2-.07.39-.21.55l-1.93,2.24c-.11.13-.18.29-.2.47l-.33,3.14-.52-3.96c-.02-.18.01-.36.1-.52l.87-1.6c.1-.18.13-.38.09-.58l-.43-2.12c-.05-.22-.18-.42-.37-.54l-1.29-.85c-.28-.19-.65-.18-.93,0l-2.19,1.5c-.13.09-.29.14-.44.15l-2.85.1c-.21,0-.4.09-.55.23l-2.23,2.14,1.72-3.04c.14-.25.39-.41.68-.43l2.06-.13c.33-.02.62-.24.73-.55l.85-2.27c.06-.17.07-.35.03-.52l-.31-1.17c-.1-.36-.41-.62-.78-.63l-2.48-.09c-.2,0-.39-.09-.54-.23l-2.25-2.1c-.14-.13-.33-.21-.52-.22l-3.63-.22,3.7-.89c.2-.05.41-.02.59.07l2.5,1.32c.2.11.44.13.65.05l2.21-.73c.29-.1.5-.34.56-.64l.26-1.3c.05-.24,0-.49-.16-.69l-1.46-1.91c-.11-.14-.17-.32-.17-.5l-.07-3.05c0-.2-.08-.39-.21-.54l-1.98-2.25,3.03,2.05c.21.14.35.38.37.64l.2,2.44c.03.36.28.66.62.75l2.26.61c.17.05.35.04.52-.03Z"/>
      <path class="cls-1" d="M23.43,19.34v.52c0,.13.06.26.17.34l1.55,1.19c.12.09.26.15.41.17l2.41.3-2.26-1.26c-.22-.12-.37-.33-.42-.58l-.23-1.18c-.04-.2-.21-.34-.41-.34h-.38c-.47,0-.84.38-.84.85Z"/>
      <path class="cls-1" d="M19.42,23.67l-.19.18c-.08.08-.13.19-.13.31v1.96c0,.2.07.39.2.54l1.66,2.01-.81-2.1c-.08-.2-.08-.42,0-.62l.68-1.71c.07-.18.01-.39-.14-.5l-.2-.14c-.33-.24-.78-.21-1.07.07Z"/>
      <path class="cls-1" d="M13.82,23.83l-.74-.16c-.17-.04-.35.04-.44.19l-1.05,1.66c-.07.11-.11.24-.13.37l-.23,2.13,1.11-1.86c.09-.14.21-.26.36-.33l1.55-.73c.15-.07.24-.22.24-.38v-.05c0-.4-.28-.74-.66-.83Z"/>
      <path class="cls-1" d="M9.52,19.64l-.19-.24c-.08-.1-.2-.16-.33-.16h-2.51c-.22,0-.43.09-.59.24l-1.53,1.51,2.51-.73c.17-.05.36-.04.53.02l1.58.6c.17.06.36.01.47-.13l.04-.04c.25-.31.26-.76,0-1.07Z"/>
      <path class="cls-1" d="M8.34,14.36l.26.05c.52.11,1.01-.3,1.01-.83v-.05c0-.1-.04-.2-.11-.28l-1.38-1.56c-.13-.15-.31-.25-.5-.27l-3.25-.49,2.25,1.23c.12.07.23.16.3.28l1.15,1.75c.06.09.16.16.27.18Z"/>
      <path class="cls-1" d="M12.5,9.83l.24.1c.19.07.4.08.59,0l.46-.17c.17-.06.28-.22.28-.4v-2.11c0-.19-.06-.38-.18-.53l-1.8-2.31.89,2.68c.07.2.06.42-.03.61l-.68,1.54c-.1.22,0,.48.23.57Z"/>
      <path class="cls-1" d="M18.43,9.03l.18.31c.15.26.43.42.72.42h.65c.12,0,.23-.05.31-.14l1.18-1.32c.12-.13.19-.3.21-.48l.34-3.38-1.36,2.81c-.08.17-.22.31-.4.4l-1.67.8c-.22.11-.31.39-.18.6Z"/>
      <path class="cls-1" d="M23.3,12.36l-.1.32c-.06.19-.05.4.03.58l.1.23c.07.16.22.26.39.26h2.42c.13,0,.27-.03.38-.09l2.82-1.46-3.27.6c-.15.03-.3.01-.45-.04l-1.77-.67c-.23-.09-.48.04-.55.27Z"/>
    </g>
  </g>
</svg>