<?xml version="1.0" encoding="UTF-8"?>
<svg id="Livello_2" data-name="Livello 2" xmlns="http://www.w3.org/2000/svg" viewBox="0 0 32.78 33">
  <defs>
    <style>
      .cls-1 {
        fill: #1d1d1b;
        stroke-width: 0px;
      }
    </style>
  </defs>
  <g id="icone">
    <g id="sword">
      <path class="cls-1" d="M3.11,15.05l-.16.15c-.24.23-.27.61-.07.87l5.57,7.29c.34.45.74.85,1.18,1.19l6.86,5.16c.26.2.64.33.87.1l.31-.31c.25-.25.25-.67,0-.92l-6.99-7-6.67-6.52c-.25-.24-.63-.24-.89,0Z"/>
      <path class="cls-1" d="M29.02,1.16c-.85.26-1.67.61-2.45,1.05-.83.46-1.69,1.02-2.57,1.7-.49.38-.94.76-1.36,1.13l-13.35,13.59c-.25.26-.25.67,0,.92l3.95,3.9c.25.25.66.25.91,0l13.69-13.93c.33-.37.67-.77,1-1.22,1.1-1.47,1.89-2.88,2.38-4.13.54-1.37,1.02-2.79,1.56-4.17l-3.76,1.16ZM21.19,12.05l-8.68,8.76c-.17.17-.44.17-.61,0-.19-.19-.19-.5,0-.69l8.6-8.67c.19-.19.5-.19.69,0,.17.17.17.44,0,.61Z"/>
      <path class="cls-1" d="M10.12,25.93l-2.83-3.11c-.24-.27-.66-.28-.92-.03L.39,28.62c-.25.24-.39.58-.39.93v3.45h3.61c.35,0,.68-.14.92-.39l5.57-5.79c.24-.25.24-.64.01-.89ZM7.95,25.4l-3.88,3.92c-.09.1-.25.1-.34,0-.11-.11-.11-.28,0-.39l3.84-3.87c.11-.11.28-.11.39,0,.09.1.09.25,0,.35Z"/>
    </g>
  </g>
</svg>