<?xml version="1.0" encoding="UTF-8"?>
<svg id="Livello_2" data-name="Livello 2" xmlns="http://www.w3.org/2000/svg" viewBox="0 0 26.15 40">
  <defs>
    <style>
      .cls-1 {
        fill: #1d1d1b;
        stroke-width: 0px;
      }
    </style>
  </defs>
  <g id="icone">
    <g id="_2_card_and_sword" data-name="2 card and sword">
      <path class="cls-1" d="M8.17,4.32l.23-3.26c-.03-.61.48-1.1,1.09-1.05l15.73,1.26c.56.04.97.53.93,1.09l-2.03,25.51c-.05.59-.59,1.01-1.17.92h0c-.45-.07-.8-.44-.84-.9l-2.04-21.1c-.15-1.53-1.51-2.65-3.04-2.49l-7.76.8c-.58.06-1.06-.18-1.09-.76Z"/>
      <g>
        <path class="cls-1" d="M21.91,35.88l-2.82-28.12c-.13-1.32-1.06-2.31-2.08-2.21L1.62,7.09c-1.02.1-1.73,1.25-1.6,2.57l2.82,28.12c.13,1.32,1.06,2.31,2.08,2.21l15.39-1.54c1.02-.1,1.73-1.25,1.6-2.57ZM9.12,15.29c.06-.39.17-.77.31-1.14l.63-1.63c.33.57.69,1.13,1.02,1.69.3.52.57,1.18.78,1.97.06.24.11.47.15.69l1.06,8.6c.02.16-.09.3-.25.32l-2.44.29c-.16.02-.3-.09-.32-.25l-1.04-8.39c-.02-.25-.02-.51-.02-.78,0-.49.05-.95.12-1.36ZM13.48,31.76l-1,1.25-1.2-.95c-.12-.1-.2-.24-.22-.39l-.37-3.68c-.02-.16.1-.3.26-.31l1.86-.13c.15-.01.29.1.31.25l.47,3.53c.02.15-.02.31-.12.43ZM15.89,26.38l-3.68.96c-.24.06-.49.09-.74.08l-4.07-.07c-.15,0-.27-.12-.28-.27v-.1c-.02-.15.09-.29.24-.3l4.11-.52,4.36-.5c.16-.02.3.1.32.25l.02.19c.02.14-.14.24-.27.27Z"/>
        <path class="cls-1" d="M11.92,28.06c-.07,0-.11.07-.11.13l.29,2.4c0,.07.07.12.14.11.06,0,.1-.06.09-.12l-.29-2.43c0-.06-.06-.1-.12-.1Z"/>
        <path class="cls-1" d="M11.53,25.52c.1-.01.18-.11.17-.21l-.65-5.43c-.01-.1-.11-.18-.21-.17-.12.01-.2.12-.19.24l.64,5.38c.01.12.12.2.24.19Z"/>
      </g>
    </g>
  </g>
</svg>