<?xml version="1.0" encoding="UTF-8"?>
<svg id="Livello_2" data-name="Livello 2" xmlns="http://www.w3.org/2000/svg" viewBox="0 0 33 33">
  <defs>
    <style>
      .cls-1 {
        fill: #1d1d1b;
        stroke-width: 0px;
      }
    </style>
  </defs>
  <g id="icone">
    <g id="arco">
      <path class="cls-1" d="M5.46,23.46l-4.03,5.12,4.47-1.2-1.48,4.26,5.28-3.84c.09-.06.14-.17.13-.28l-.15-1.93,21.52,4.7c.38.08.74-.2.77-.6v-.15c.03-.32-.18-.6-.49-.67l-19.62-4.42,12.94-13.35c.37-.38.43-.81.05-1.19l-1.09-1.11c-.36-.37-.91-.44-1.28-.07l-13.33,12.9L4.49,1.41c-.08-.34-.41-.56-.74-.49l-.22.05c-.35.07-.58.42-.5.78l4.89,21.84-2.18-.25c-.11-.01-.21.03-.28.12Z"/>
      <path class="cls-1" d="M0,1.11h0C-.04.52.46.49.82.43.82.43,15.11-2.68,25.42,7.85c10.64,10.88,6.97,24.37,6.97,24.37-.14.44-.13.72-.58.77-.19.02-.37-.06-.37-.06-.39-.14-.32-.57-.21-.98,0,0,3.1-11.08-7.58-22.1C13.36-.76,1.43,1.65.56,1.66.06,1.68,0,1.37,0,1.11Z"/>
      <path class="cls-1" d="M25.23,6.19l.43-.44c.22-.23.35-.53.37-.84l.1-1.83,4.88-.51-.65,4.93-1.72.02c-.33,0-.65.14-.89.38l-.43.44c-.25.25-2,2.27-2.25,2.02l-1.75-1.88c-.25-.25,1.66-2.02,1.91-2.28Z"/>
    </g>
  </g>
</svg>