<?xml version="1.0" encoding="UTF-8"?>
<svg id="Livello_2" data-name="Livello 2" xmlns="http://www.w3.org/2000/svg" viewBox="0 0 29.83 33">
  <defs>
    <style>
      .cls-1 {
        fill: #1d1d1b;
        stroke-width: 0px;
      }
    </style>
  </defs>
  <g id="icone">
    <g>
      <path class="cls-1" d="M21.46,32.9l8.3-9.45c.12-.13.09-.33-.05-.44-1.32-.94-7.1-5.11-7.39-6.59-.49-2.5.37-8.11-.85-10.42-1.51-2.87-7.18-4.05-8.87-3.98s-2.25,2.37-2.46,3.6c-.1.57-.26,1.12-.5,1.64,0,0-1.14,1.95-1.17,2.62-.07,1.28,1.61,1.37,2.11,1.3,1.17-.17,2.98-2.2,2.98-2.2,0,0,1.33-1.44,1.12-3.04-.11-.81-.16-.91-.59-1.53-.25-.36,1.07.4,1.28,1.53.15.77-.44,2.15-.44,2.15,0,0,1.44.16,2.89-1.36.42-.44,0,1.12-1.67,1.76-.69.27-1.59.28-1.59.28l-1.57,1.84c-1.07,2.93-.05,7.16,1,8.76-1.05-.6-1.68-2.25-1.98-3.28-.15-.51-.22-1.04-.21-1.57,0,0-.07-1.1.1-2.23,0,0-.45,1.15-1.73,1.22,0,0,1.24,2.47-1.86,3.39,0,0,.76,1.92-1.42,3.13-1.27.71-4.39-.41-4.39-.41,0,0,7.1,7.87,12.24,8.28.39.03.76.18,1.05.43l5.26,4.59c.12.11.31.09.42-.03Z"/>
      <path class="cls-1" d="M1.61,14.44c-.2-.08-.66-.04-.83.08-.5.36-.96,1.13-.6,2.36.62,2.11,5.61,2.94,6.26,2.56.2.05,1.9-1.07.97-2.22-.65-.8-3.99-2.01-5.8-2.79Z"/>
      <path class="cls-1" d="M9.18,6.52s.48-2.03.71-2.69c.39-1.1,1.19-1.84,1.19-1.84,0,0-.97-1.08-1.86-1.67-.52-.35-1.18-.4-1.78-.22s-2.11,1.41-1.34,3.15c.63,1.41,3.09,3.27,3.09,3.27Z"/>
      <path class="cls-1" d="M2.81,9.17c-1.45-.68-3.34,1.34-2.67,2.93.24,1.16,5.52,3.32,7.16,3.92,1.65.49,3.1-1.29,2.06-2.27-1.56-1.46-6.55-4.57-6.55-4.57Z"/>
      <path class="cls-1" d="M4.63,4.29c-1.58-.07-3.33,2.07-1.85,3.89.09.1.19.19.3.27l6.35,4.23c.19.13.43.18.65.14,1.4-.28,1.56-1.46,1.56-1.46,0,0-.86.72-2.25.47-1.3-.23-1.71-1.38-1.71-1.38-.35-1.15.68-2.29,1.03-2.93.06-.12,0-.43-.1-.52-.66-.63-2.98-2.78-3.98-2.7Z"/>
    </g>
  </g>
</svg>